# xmcd
#
# Track frame offsets: 
#        150
#        23169
#        36035
#        57131
#        68245
#        96218
#        129034
#        156736
#        173689
#        195728
#        217303
#        235831
#        261838
#
# Disc length: 3721 seconds
#
# Revision: 0
# Processed by: cddbd v1.5.2PL0 Copyright (c) Steve Scherf et al.
# Submitted via: ExactAudioCopyFreeDBPlugin 1.0
#
DISCID=b60e870d
DTITLE=The Rides - Can't Get Enough
DYEAR=2013
DGENRE=Blues
TTITLE0=Roadhouse
TTITLE1=That's A Pretty Good Love
TTITLE2=Don't Want Lies
TTITLE3=Search An Destroy
TTITLE4=Can't Get Enough
TTITLE5=Honey Bee
TTITLE6=Rockin' In The Free World
TTITLE7=Talk To Me Baby
TTITLE8=Only Teardrops Fall
TTITLE9=Word Game
TTITLE10=High Voltage (Bonus Track)
TTITLE11=Honey Bee (Edited Version)
TTITLE12=Don't Want Lies (Acoustic)
EXTD=
EXTT0=
EXTT1=
EXTT2=
EXTT3=
EXTT4=
EXTT5=
EXTT6=
EXTT7=
EXTT8=
EXTT9=
EXTT10=
EXTT11=
EXTT12=
PLAYORDER=
